# xmcd CD database file
#
# Track frame offsets:
#	150
#	17112
#	35367
#	53402
#	80342
#	94900
#	113175
#	126027
#	143927
#	170357
#
# Disc length: 2415 seconds
#
# Revision: 0
# Processed by: cddbd v1.5PL3 Copyright (c) Steve Scherf et al.
# Submitted via: CDex 1.51
#
DISCID=79096d0a
DTITLE=SOME SMALL HOPE - SOME SMALL HOPE
DYEAR=1900
DGENRE=Rock
TTITLE0=SMILE
TTITLE1=JUST ONE GUITAR
TTITLE2=27
TTITLE3=CHILDREN'S SONG
TTITLE4=いつの日も。
TTITLE5=TODAY
TTITLE6=灰色
TTITLE7=優しさの意味を
TTITLE8=人よ
TTITLE9=帰り道
EXTD=
EXTT0=
EXTT1=
EXTT2=
EXTT3=
EXTT4=
EXTT5=
EXTT6=
EXTT7=
EXTT8=
EXTT9=
PLAYORDER=
